G04 #@! TF.FileFunction,Paste,Bot*
%FSLAX46Y46*%
G04 Gerber Fmt 4.6, Leading zero omitted, Abs format (unit mm)*
G04 Created by KiCad (PCBNEW 4.0.5-e0-6337~49~ubuntu14.04.1) date Fri Jun 23 15:22:33 2017*
%MOMM*%
%LPD*%
G01*
G04 APERTURE LIST*
%ADD10C,0.100000*%
%ADD11C,0.800000*%
%ADD12R,0.600000X1.700000*%
%ADD13R,1.000000X2.700000*%
%ADD14C,1.500000*%
%ADD15R,1.200000X1.000000*%
%ADD16R,1.000000X1.200000*%
%ADD17R,0.800000X0.500000*%
%ADD18R,0.500000X0.800000*%
%ADD19R,0.600000X1.200000*%
%ADD20R,1.200000X0.600000*%
%ADD21R,5.600000X5.600000*%
%ADD22R,0.300000X1.250000*%
%ADD23R,1.250000X0.300000*%
G04 APERTURE END LIST*
D10*
D11*
X151150000Y-67230000D03*
X149450000Y-67230000D03*
X151150000Y-64770000D03*
X149450000Y-64770000D03*
D12*
X133275000Y-100300000D03*
X132025000Y-100300000D03*
X134525000Y-100300000D03*
X135775000Y-100300000D03*
D13*
X130100000Y-103350000D03*
X137700000Y-103350000D03*
D10*
G36*
X148424750Y-92803604D02*
X149817308Y-93778684D01*
X149473162Y-94270176D01*
X148080604Y-93295096D01*
X148424750Y-92803604D01*
X148424750Y-92803604D01*
G37*
G36*
X147707780Y-93827544D02*
X149100338Y-94802624D01*
X148756192Y-95294116D01*
X147363634Y-94319036D01*
X147707780Y-93827544D01*
X147707780Y-93827544D01*
G37*
G36*
X149141721Y-91779664D02*
X150534279Y-92754744D01*
X150190133Y-93246236D01*
X148797575Y-92271156D01*
X149141721Y-91779664D01*
X149141721Y-91779664D01*
G37*
G36*
X149858691Y-90755724D02*
X151251249Y-91730804D01*
X150907103Y-92222296D01*
X149514545Y-91247216D01*
X149858691Y-90755724D01*
X149858691Y-90755724D01*
G37*
G36*
X148807198Y-96703202D02*
X151018908Y-98251858D01*
X150445332Y-99071010D01*
X148233622Y-97522354D01*
X148807198Y-96703202D01*
X148807198Y-96703202D01*
G37*
G36*
X153166379Y-90477646D02*
X155378089Y-92026302D01*
X154804513Y-92845454D01*
X152592803Y-91296798D01*
X153166379Y-90477646D01*
X153166379Y-90477646D01*
G37*
G36*
X112610633Y-69435638D02*
X111275405Y-65665072D01*
X112689367Y-65164362D01*
X114024595Y-68934928D01*
X112610633Y-69435638D01*
X112610633Y-69435638D01*
G37*
D14*
X113317614Y-69185283D03*
D10*
G36*
X114943019Y-68600355D02*
X113607791Y-64829789D01*
X115021753Y-64329079D01*
X116356981Y-68099645D01*
X114943019Y-68600355D01*
X114943019Y-68600355D01*
G37*
D14*
X115650000Y-68350000D03*
D15*
X147600000Y-67000000D03*
X147600000Y-65000000D03*
D16*
X149300000Y-68900000D03*
X151300000Y-68900000D03*
X143300000Y-62100000D03*
X145300000Y-62100000D03*
D15*
X147000000Y-63600000D03*
X147000000Y-61600000D03*
D17*
X143700000Y-63400000D03*
X144900000Y-63400000D03*
D15*
X120500000Y-74000000D03*
X120500000Y-72000000D03*
D16*
X124500000Y-75500000D03*
X122500000Y-75500000D03*
X142300000Y-74200000D03*
X144300000Y-74200000D03*
D17*
X140400000Y-76000000D03*
X141600000Y-76000000D03*
D15*
X139000000Y-64500000D03*
X139000000Y-66500000D03*
D18*
X137800000Y-65400000D03*
X137800000Y-66600000D03*
X133700000Y-77400000D03*
X133700000Y-78600000D03*
D17*
X131100000Y-69200000D03*
X129900000Y-69200000D03*
D16*
X131000000Y-68000000D03*
X129000000Y-68000000D03*
D10*
G36*
X154531378Y-75601516D02*
X156224909Y-75749681D01*
X156172616Y-76347398D01*
X154479085Y-76199233D01*
X154531378Y-75601516D01*
X154531378Y-75601516D01*
G37*
G36*
X154422433Y-76846759D02*
X156115964Y-76994924D01*
X156063671Y-77592641D01*
X154370140Y-77444476D01*
X154422433Y-76846759D01*
X154422433Y-76846759D01*
G37*
G36*
X154640322Y-74356273D02*
X156333853Y-74504438D01*
X156281560Y-75102155D01*
X154588029Y-74953990D01*
X154640322Y-74356273D01*
X154640322Y-74356273D01*
G37*
G36*
X154749267Y-73111029D02*
X156442798Y-73259194D01*
X156390505Y-73856911D01*
X154696974Y-73708746D01*
X154749267Y-73111029D01*
X154749267Y-73111029D01*
G37*
G36*
X156812386Y-78787442D02*
X159502112Y-79022763D01*
X159414956Y-80018958D01*
X156725230Y-79783637D01*
X156812386Y-78787442D01*
X156812386Y-78787442D01*
G37*
G36*
X157474770Y-71216362D02*
X160164496Y-71451683D01*
X160077340Y-72447878D01*
X157387614Y-72212557D01*
X157474770Y-71216362D01*
X157474770Y-71216362D01*
G37*
G36*
X152478650Y-84899078D02*
X154090801Y-85438496D01*
X153900418Y-86007490D01*
X152288267Y-85468072D01*
X152478650Y-84899078D01*
X152478650Y-84899078D01*
G37*
G36*
X152082020Y-86084483D02*
X153694171Y-86623901D01*
X153503788Y-87192895D01*
X151891637Y-86653477D01*
X152082020Y-86084483D01*
X152082020Y-86084483D01*
G37*
G36*
X152875281Y-83713674D02*
X154487432Y-84253092D01*
X154297049Y-84822086D01*
X152684898Y-84282668D01*
X152875281Y-83713674D01*
X152875281Y-83713674D01*
G37*
G36*
X153271912Y-82528269D02*
X154884063Y-83067687D01*
X154693680Y-83636681D01*
X153081529Y-83097263D01*
X153271912Y-82528269D01*
X153271912Y-82528269D01*
G37*
G36*
X153952894Y-88529468D02*
X156513368Y-89386190D01*
X156196064Y-90334514D01*
X153635590Y-89477792D01*
X153952894Y-88529468D01*
X153952894Y-88529468D01*
G37*
G36*
X156364410Y-81322208D02*
X158924884Y-82178930D01*
X158607580Y-83127254D01*
X156047106Y-82270532D01*
X156364410Y-81322208D01*
X156364410Y-81322208D01*
G37*
G36*
X142127774Y-98026266D02*
X142846225Y-99566989D01*
X142302440Y-99820560D01*
X141583989Y-98279837D01*
X142127774Y-98026266D01*
X142127774Y-98026266D01*
G37*
G36*
X140994889Y-98554539D02*
X141713340Y-100095262D01*
X141169555Y-100348833D01*
X140451104Y-98808110D01*
X140994889Y-98554539D01*
X140994889Y-98554539D01*
G37*
G36*
X143260658Y-97497993D02*
X143979109Y-99038716D01*
X143435324Y-99292287D01*
X142716873Y-97751564D01*
X143260658Y-97497993D01*
X143260658Y-97497993D01*
G37*
G36*
X144393543Y-96969721D02*
X145111994Y-98510444D01*
X144568209Y-98764015D01*
X143849758Y-97223292D01*
X144393543Y-96969721D01*
X144393543Y-96969721D01*
G37*
G36*
X140509184Y-101594640D02*
X141650254Y-104041671D01*
X140743946Y-104464290D01*
X139602876Y-102017259D01*
X140509184Y-101594640D01*
X140509184Y-101594640D01*
G37*
G36*
X147397123Y-98382741D02*
X148538193Y-100829772D01*
X147631885Y-101252391D01*
X146490815Y-98805360D01*
X147397123Y-98382741D01*
X147397123Y-98382741D01*
G37*
G36*
X123897200Y-97825725D02*
X123232957Y-99390583D01*
X122680654Y-99156145D01*
X123344897Y-97591287D01*
X123897200Y-97825725D01*
X123897200Y-97825725D01*
G37*
G36*
X122746569Y-97337311D02*
X122082326Y-98902169D01*
X121530023Y-98667731D01*
X122194266Y-97102873D01*
X122746569Y-97337311D01*
X122746569Y-97337311D01*
G37*
G36*
X125047831Y-98314139D02*
X124383588Y-99878997D01*
X123831285Y-99644559D01*
X124495528Y-98079701D01*
X125047831Y-98314139D01*
X125047831Y-98314139D01*
G37*
G36*
X126198463Y-98802553D02*
X125534220Y-100367411D01*
X124981917Y-100132973D01*
X125646160Y-98568115D01*
X126198463Y-98802553D01*
X126198463Y-98802553D01*
G37*
G36*
X120162334Y-99010587D02*
X119107360Y-101495950D01*
X118186856Y-101105219D01*
X119241830Y-98619856D01*
X120162334Y-99010587D01*
X120162334Y-99010587D01*
G37*
G36*
X127158170Y-101980144D02*
X126103196Y-104465507D01*
X125182692Y-104074776D01*
X126237666Y-101589413D01*
X127158170Y-101980144D01*
X127158170Y-101980144D01*
G37*
G36*
X114481934Y-87001014D02*
X112807761Y-87296216D01*
X112703572Y-86705332D01*
X114377745Y-86410130D01*
X114481934Y-87001014D01*
X114481934Y-87001014D01*
G37*
G36*
X114264873Y-85770004D02*
X112590700Y-86065206D01*
X112486511Y-85474322D01*
X114160684Y-85179120D01*
X114264873Y-85770004D01*
X114264873Y-85770004D01*
G37*
G36*
X114698994Y-88232023D02*
X113024821Y-88527225D01*
X112920632Y-87936341D01*
X114594805Y-87641139D01*
X114698994Y-88232023D01*
X114698994Y-88232023D01*
G37*
G36*
X114916054Y-89463033D02*
X113241881Y-89758235D01*
X113137692Y-89167351D01*
X114811865Y-88872149D01*
X114916054Y-89463033D01*
X114916054Y-89463033D01*
G37*
G36*
X110802890Y-80820985D02*
X108143909Y-81289835D01*
X107970260Y-80305027D01*
X110629241Y-79836177D01*
X110802890Y-80820985D01*
X110802890Y-80820985D01*
G37*
G36*
X112773797Y-91998553D02*
X110114816Y-92467403D01*
X109941167Y-91482595D01*
X112600148Y-91013745D01*
X112773797Y-91998553D01*
X112773797Y-91998553D01*
G37*
G36*
X113943624Y-83948110D02*
X114047813Y-84538994D01*
X112373640Y-84834196D01*
X112269451Y-84243312D01*
X113943624Y-83948110D01*
X113943624Y-83948110D01*
G37*
G36*
X113726564Y-82717101D02*
X113830753Y-83307985D01*
X112156580Y-83603187D01*
X112052391Y-83012303D01*
X113726564Y-82717101D01*
X113726564Y-82717101D01*
G37*
G36*
X113509504Y-81486091D02*
X113613693Y-82076975D01*
X111939520Y-82372177D01*
X111835331Y-81781293D01*
X113509504Y-81486091D01*
X113509504Y-81486091D01*
G37*
D18*
X149400000Y-63200000D03*
X149400000Y-62000000D03*
X148400000Y-63200000D03*
X148400000Y-62000000D03*
X146200000Y-66900000D03*
X146200000Y-68100000D03*
D17*
X144900000Y-68500000D03*
X143700000Y-68500000D03*
X153150000Y-79500000D03*
X154350000Y-79500000D03*
X153150000Y-80500000D03*
X154350000Y-80500000D03*
D10*
G36*
X148868789Y-90037454D02*
X149278365Y-90324242D01*
X148819503Y-90979564D01*
X148409927Y-90692776D01*
X148868789Y-90037454D01*
X148868789Y-90037454D01*
G37*
G36*
X148180497Y-91020436D02*
X148590073Y-91307224D01*
X148131211Y-91962546D01*
X147721635Y-91675758D01*
X148180497Y-91020436D01*
X148180497Y-91020436D01*
G37*
D18*
X138750000Y-101900000D03*
X138750000Y-103100000D03*
X128900000Y-101400000D03*
X128900000Y-102600000D03*
X128100000Y-101400000D03*
X128100000Y-102600000D03*
D17*
X129900000Y-71250000D03*
X131100000Y-71250000D03*
X131100000Y-74100000D03*
X129900000Y-74100000D03*
X131100000Y-73300000D03*
X129900000Y-73300000D03*
D10*
G36*
X118186589Y-96650188D02*
X117171065Y-97613884D01*
X116482711Y-96888510D01*
X117498235Y-95924814D01*
X118186589Y-96650188D01*
X118186589Y-96650188D01*
G37*
G36*
X115295500Y-93603616D02*
X114279976Y-94567312D01*
X113591622Y-93841938D01*
X114607146Y-92878242D01*
X115295500Y-93603616D01*
X115295500Y-93603616D01*
G37*
G36*
X117789834Y-99646033D02*
X117064459Y-100334388D01*
X115687750Y-98883639D01*
X116413125Y-98195284D01*
X117789834Y-99646033D01*
X117789834Y-99646033D01*
G37*
G36*
X112971352Y-94568412D02*
X112245977Y-95256767D01*
X110869268Y-93806018D01*
X111594643Y-93117663D01*
X112971352Y-94568412D01*
X112971352Y-94568412D01*
G37*
D19*
X144300000Y-64850000D03*
X143350000Y-64850000D03*
X145250000Y-64850000D03*
X145250000Y-67150000D03*
X143350000Y-67150000D03*
D20*
X122350000Y-73000000D03*
X122350000Y-73950000D03*
X122350000Y-72050000D03*
X124650000Y-72050000D03*
X124650000Y-73950000D03*
D21*
X136500000Y-72000000D03*
D22*
X133750000Y-68250000D03*
X134250000Y-68250000D03*
X134750000Y-68250000D03*
X135250000Y-68250000D03*
X135750000Y-68250000D03*
X136250000Y-68250000D03*
X136750000Y-68250000D03*
X137250000Y-68250000D03*
X137750000Y-68250000D03*
X138250000Y-68250000D03*
X138750000Y-68250000D03*
X139250000Y-68250000D03*
D23*
X140250000Y-69250000D03*
X140250000Y-69750000D03*
X140250000Y-70250000D03*
X140250000Y-70750000D03*
X140250000Y-71250000D03*
X140250000Y-71750000D03*
X140250000Y-72250000D03*
X140250000Y-72750000D03*
X140250000Y-73250000D03*
X140250000Y-73750000D03*
X140250000Y-74250000D03*
X140250000Y-74750000D03*
D22*
X139250000Y-75750000D03*
X138750000Y-75750000D03*
X138250000Y-75750000D03*
X137750000Y-75750000D03*
X137250000Y-75750000D03*
X136750000Y-75750000D03*
X136250000Y-75750000D03*
X135750000Y-75750000D03*
X135250000Y-75750000D03*
X134750000Y-75750000D03*
X134250000Y-75750000D03*
X133750000Y-75750000D03*
D23*
X132750000Y-74750000D03*
X132750000Y-74250000D03*
X132750000Y-73750000D03*
X132750000Y-73250000D03*
X132750000Y-72750000D03*
X132750000Y-72250000D03*
X132750000Y-71750000D03*
X132750000Y-71250000D03*
X132750000Y-70750000D03*
X132750000Y-70250000D03*
X132750000Y-69750000D03*
X132750000Y-69250000D03*
D10*
G36*
X126860633Y-64385638D02*
X125525405Y-60615072D01*
X126939367Y-60114362D01*
X128274595Y-63884928D01*
X126860633Y-64385638D01*
X126860633Y-64385638D01*
G37*
D14*
X127567614Y-64135283D03*
D18*
X133700000Y-65400000D03*
X133700000Y-66600000D03*
X136700000Y-66600000D03*
X136700000Y-65400000D03*
D16*
X141200000Y-62100000D03*
X139200000Y-62100000D03*
M02*
